<svg width="119" height="16" viewBox="0 0 119 16" fill="none" xmlns="http://www.w3.org/2000/svg">
<path d="M2.7 15.5C2.20667 15.5 1.76 15.38 1.36 15.14C0.96 14.8867 0.633333 14.56 0.38 14.16C0.14 13.76 0.0200001 13.3133 0.0200001 12.82V6.58C0.0200001 6.08667 0.14 5.64 0.38 5.24C0.633333 4.84 0.96 4.52 1.36 4.28C1.76 4.02667 2.20667 3.9 2.7 3.9H9.12C9.62667 3.9 10.08 4.02667 10.48 4.28C10.88 4.52 11.2 4.84 11.44 5.24C11.68 5.64 11.8 6.08667 11.8 6.58V10.9H2.4V12.74C2.4 12.8467 2.43333 12.94 2.5 13.02C2.58 13.0867 2.67333 13.12 2.78 13.12H11.8V15.5H2.7ZM2.4 8.72H9.42V6.66C9.42 6.55333 9.38 6.46667 9.3 6.4C9.23333 6.32 9.14667 6.28 9.04 6.28H2.78C2.67333 6.28 2.58 6.32 2.5 6.4C2.43333 6.46667 2.4 6.55333 2.4 6.66V8.72ZM17.0984 15.5C16.6051 15.5 16.1584 15.38 15.7584 15.14C15.3584 14.8867 15.0318 14.56 14.7784 14.16C14.5384 13.76 14.4184 13.3133 14.4184 12.82V6.58C14.4184 6.08667 14.5384 5.64 14.7784 5.24C15.0318 4.84 15.3584 4.52 15.7584 4.28C16.1584 4.02667 16.6051 3.9 17.0984 3.9H26.1784V6.28H17.1784C17.0718 6.28 16.9784 6.32 16.8984 6.4C16.8318 6.46667 16.7984 6.55333 16.7984 6.66V12.74C16.7984 12.8467 16.8318 12.94 16.8984 13.02C16.9784 13.0867 17.0718 13.12 17.1784 13.12H26.1984V15.5H17.0984ZM31.927 15.5C31.4337 15.5 30.9804 15.38 30.567 15.14C30.167 14.8867 29.847 14.56 29.607 14.16C29.367 13.76 29.247 13.3133 29.247 12.82V8.5H38.647V6.66C38.647 6.55333 38.607 6.46667 38.527 6.4C38.4604 6.32 38.3737 6.28 38.267 6.28H29.247V3.9H38.347C38.8537 3.9 39.307 4.02667 39.707 4.28C40.107 4.52 40.427 4.84 40.667 5.24C40.907 5.64 41.027 6.08667 41.027 6.58V15.5H31.927ZM32.007 13.12H38.647V10.68H31.627V12.74C31.627 12.8467 31.6604 12.94 31.727 13.02C31.807 13.0867 31.9004 13.12 32.007 13.12ZM43.8017 15.5V6.58C43.8017 6.08667 43.9217 5.64 44.1617 5.24C44.4151 4.84 44.7417 4.52 45.1417 4.28C45.5551 4.02667 46.0017 3.9 46.4817 3.9H52.9417V6.28H46.5617C46.4551 6.28 46.3617 6.32 46.2817 6.4C46.2151 6.46667 46.1817 6.55333 46.1817 6.66V15.5H43.8017Z" fill="white"/>
<path d="M57.9505 15.5C57.4571 15.5 57.0105 15.38 56.6105 15.14C56.2105 14.8867 55.8838 14.56 55.6305 14.16C55.3905 13.76 55.2705 13.3133 55.2705 12.82V0.0799994H57.6705V12.74C57.6705 12.8467 57.7038 12.94 57.7705 13.02C57.8505 13.0867 57.9371 13.12 58.0305 13.12H60.1905V15.5H57.9505ZM65.2977 15.5C64.8043 15.5 64.3577 15.38 63.9577 15.14C63.5577 14.8867 63.231 14.56 62.9777 14.16C62.7377 13.76 62.6177 13.3133 62.6177 12.82V6.58C62.6177 6.08667 62.7377 5.64 62.9777 5.24C63.231 4.84 63.5577 4.52 63.9577 4.28C64.3577 4.02667 64.8043 3.9 65.2977 3.9H71.7177C72.2243 3.9 72.6777 4.02667 73.0777 4.28C73.4777 4.52 73.7977 4.84 74.0377 5.24C74.2777 5.64 74.3977 6.08667 74.3977 6.58V10.9H64.9977V12.74C64.9977 12.8467 65.031 12.94 65.0977 13.02C65.1777 13.0867 65.271 13.12 65.3777 13.12H74.3977V15.5H65.2977ZM64.9977 8.72H72.0177V6.66C72.0177 6.55333 71.9777 6.46667 71.8977 6.4C71.831 6.32 71.7443 6.28 71.6377 6.28H65.3777C65.271 6.28 65.1777 6.32 65.0977 6.4C65.031 6.46667 64.9977 6.55333 64.9977 6.66V8.72ZM80.1653 15.5C79.672 15.5 79.2186 15.38 78.8053 15.14C78.4053 14.8867 78.0853 14.56 77.8453 14.16C77.6053 13.76 77.4853 13.3133 77.4853 12.82V8.5H86.8853V6.66C86.8853 6.55333 86.8453 6.46667 86.7653 6.4C86.6986 6.32 86.612 6.28 86.5053 6.28H77.4853V3.9H86.5853C87.092 3.9 87.5453 4.02667 87.9453 4.28C88.3453 4.52 88.6653 4.84 88.9053 5.24C89.1453 5.64 89.2653 6.08667 89.2653 6.58V15.5H80.1653ZM80.2453 13.12H86.8853V10.68H79.8653V12.74C79.8653 12.8467 79.8986 12.94 79.9653 13.02C80.0453 13.0867 80.1386 13.12 80.2453 13.12ZM94.5423 15.5C94.049 15.5 93.6023 15.38 93.2023 15.14C92.8023 14.8867 92.4757 14.56 92.2223 14.16C91.9823 13.76 91.8623 13.3133 91.8623 12.82V12.44H94.2423V12.74C94.2423 12.8467 94.2757 12.94 94.3423 13.02C94.4223 13.0867 94.5157 13.12 94.6223 13.12H100.882C100.989 13.12 101.076 13.0867 101.142 13.02C101.222 12.94 101.262 12.8467 101.262 12.74V11.26C101.262 11.1667 101.222 11.0867 101.142 11.02C101.076 10.94 100.989 10.9 100.882 10.9H94.5423C94.049 10.9 93.6023 10.78 93.2023 10.54C92.8023 10.2867 92.4757 9.96 92.2223 9.56C91.9823 9.16 91.8623 8.71333 91.8623 8.22V6.58C91.8623 6.08667 91.9823 5.64 92.2223 5.24C92.4757 4.84 92.8023 4.52 93.2023 4.28C93.6023 4.02667 94.049 3.9 94.5423 3.9H100.962C101.469 3.9 101.922 4.02667 102.322 4.28C102.722 4.52 103.042 4.84 103.282 5.24C103.536 5.64 103.662 6.08667 103.662 6.58V6.96H101.262V6.66C101.262 6.55333 101.222 6.46667 101.142 6.4C101.076 6.32 100.989 6.28 100.882 6.28H94.6223C94.5157 6.28 94.4223 6.32 94.3423 6.4C94.2757 6.46667 94.2423 6.55333 94.2423 6.66V8.14C94.2423 8.23333 94.2757 8.32 94.3423 8.4C94.4223 8.46667 94.5157 8.5 94.6223 8.5H100.962C101.469 8.5 101.922 8.62667 102.322 8.88C102.722 9.12 103.042 9.44 103.282 9.84C103.536 10.24 103.662 10.6867 103.662 11.18V12.82C103.662 13.3133 103.536 13.76 103.282 14.16C103.042 14.56 102.722 14.8867 102.322 15.14C101.922 15.38 101.469 15.5 100.962 15.5H94.5423ZM108.962 15.5C108.468 15.5 108.022 15.38 107.622 15.14C107.222 14.8867 106.895 14.56 106.642 14.16C106.402 13.76 106.282 13.3133 106.282 12.82V6.58C106.282 6.08667 106.402 5.64 106.642 5.24C106.895 4.84 107.222 4.52 107.622 4.28C108.022 4.02667 108.468 3.9 108.962 3.9H115.382C115.888 3.9 116.342 4.02667 116.742 4.28C117.142 4.52 117.462 4.84 117.702 5.24C117.942 5.64 118.062 6.08667 118.062 6.58V10.9H108.662V12.74C108.662 12.8467 108.695 12.94 108.762 13.02C108.842 13.0867 108.935 13.12 109.042 13.12H118.062V15.5H108.962ZM108.662 8.72H115.682V6.66C115.682 6.55333 115.642 6.46667 115.562 6.4C115.495 6.32 115.408 6.28 115.302 6.28H109.042C108.935 6.28 108.842 6.32 108.762 6.4C108.695 6.46667 108.662 6.55333 108.662 6.66V8.72Z" fill="#D93F21"/>
</svg>
