<svg width="40" height="40" viewBox="0 0 40 40" fill="none" xmlns="http://www.w3.org/2000/svg">
<path d="M22.1409 29.6H17.8742C17.5913 29.6 17.32 29.4876 17.12 29.2876C16.9199 29.0875 16.8075 28.8162 16.8075 28.5333V23.1003C8.52968 17.3333 8.24914 7.13493 8.27901 5.11627C8.27727 4.82809 8.38763 4.55053 8.58678 4.34223C8.78592 4.13393 9.05825 4.01121 9.34621 4H30.6689C30.9518 4 31.2231 4.11238 31.4231 4.31242C31.6232 4.51246 31.7355 4.78377 31.7355 5.06667C31.7659 7.1344 31.4854 17.3333 23.2075 23.1003V28.5333C23.2075 28.8162 23.0952 29.0875 22.8951 29.2876C22.6951 29.4876 22.4238 29.6 22.1409 29.6ZM18.9409 27.4667H21.0742V22.5333C21.0742 22.3558 21.1184 22.1811 21.203 22.025C21.2876 21.8689 21.4098 21.7364 21.5585 21.6395C28.4305 17.1637 29.4587 9.2432 29.5878 6.13333H10.4273C10.5563 9.2432 11.5846 17.1637 18.4566 21.6395C18.6053 21.7364 18.7275 21.8689 18.8121 22.025C18.8966 22.1811 18.9409 22.3558 18.9409 22.5333V27.4667ZM28.0075 36H12.0075C11.7246 36 11.4533 35.8876 11.2533 35.6876C11.0533 35.4875 10.9409 35.2162 10.9409 34.9333V31.7333C10.9409 31.4504 11.0533 31.1791 11.2533 30.9791C11.4533 30.779 11.7246 30.6667 12.0075 30.6667H28.0075C28.2904 30.6667 28.5618 30.779 28.7618 30.9791C28.9618 31.1791 29.0742 31.4504 29.0742 31.7333V34.9333C29.0742 35.2162 28.9618 35.4875 28.7618 35.6876C28.5618 35.8876 28.2904 36 28.0075 36ZM13.0742 33.8667H26.9409V32.8H13.0742V33.8667Z" fill="white"/>
<path d="M25.3409 32.8H14.6743C14.3914 32.8 14.1201 32.6876 13.92 32.4875C13.72 32.2875 13.6076 32.0162 13.6076 31.7333V28.5333C13.6076 28.2504 13.72 27.9791 13.92 27.779C14.1201 27.579 14.3914 27.4666 14.6743 27.4666H25.3409C25.6238 27.4666 25.8952 27.579 26.0952 27.779C26.2952 27.9791 26.4076 28.2504 26.4076 28.5333V31.7333C26.4076 32.0162 26.2952 32.2875 26.0952 32.4875C25.8952 32.6876 25.6238 32.8 25.3409 32.8ZM15.7409 30.6666H24.2743V29.6H15.7409V30.6666ZM13.6076 20C12.4104 20.0462 11.2169 19.8404 10.1044 19.3957C8.99197 18.951 7.9854 18.2774 7.15001 17.4186C3.75535 13.8586 3.99641 7.93329 4.00761 7.67996C4.02131 7.40641 4.13971 7.14861 4.33828 6.95996C4.53685 6.77131 4.80038 6.66628 5.07428 6.66663H9.34095C9.62384 6.66663 9.89515 6.77901 10.0952 6.97905C10.2952 7.17908 10.4076 7.4504 10.4076 7.73329C10.4076 8.01619 10.2952 8.2875 10.0952 8.48754C9.89515 8.68758 9.62384 8.79996 9.34095 8.79996H6.15588C6.24281 10.4746 6.67855 13.8384 8.69988 15.9525C9.33893 16.5965 10.1058 17.0996 10.951 17.4293C11.7963 17.7589 12.7013 17.9079 13.6076 17.8666C13.8905 17.8666 14.1618 17.979 14.3619 18.179C14.5619 18.3791 14.6743 18.6504 14.6743 18.9333C14.6743 19.2162 14.5619 19.4875 14.3619 19.6875C14.1618 19.8876 13.8905 20 13.6076 20ZM26.4076 20C26.1247 20 25.8534 19.8876 25.6534 19.6875C25.4533 19.4875 25.3409 19.2162 25.3409 18.9333C25.3409 18.6504 25.4533 18.3791 25.6534 18.179C25.8534 17.979 26.1247 17.8666 26.4076 17.8666C27.3138 17.9078 28.2185 17.7587 29.0636 17.429C29.9087 17.0994 30.6754 16.5964 31.3143 15.9525C33.3356 13.8384 33.7713 10.4757 33.8583 8.79996H30.6743C30.3914 8.79996 30.1201 8.68758 29.92 8.48754C29.72 8.2875 29.6076 8.01619 29.6076 7.73329C29.6076 7.4504 29.72 7.17908 29.92 6.97905C30.1201 6.77901 30.3914 6.66663 30.6743 6.66663H34.9409C35.2148 6.66628 35.4784 6.77131 35.6769 6.95996C35.8755 7.14861 35.9939 7.40641 36.0076 7.67996C36.0199 7.93063 36.2609 13.856 32.8663 17.416C32.031 18.2753 31.0244 18.9495 29.9117 19.3947C28.799 19.8398 27.6052 20.0461 26.4076 20Z" fill="white"/>
</svg>
