<svg width="16" height="16" viewBox="0 0 16 16" fill="none" xmlns="http://www.w3.org/2000/svg">
<path d="M11.7065 13.9973C11.5999 13.9978 11.4947 13.9726 11.3998 13.924L7.99984 12.144L4.59984 13.924C4.48944 13.9821 4.36496 14.008 4.24056 13.9988C4.11616 13.9896 3.99683 13.9457 3.89613 13.8721C3.79543 13.7985 3.7174 13.6981 3.67092 13.5824C3.62443 13.4666 3.61136 13.3401 3.63318 13.2173L4.29984 9.464L1.55318 6.79733C1.46748 6.71182 1.40669 6.60458 1.37733 6.48713C1.34796 6.36968 1.35114 6.24645 1.38651 6.13067C1.42515 6.01218 1.49623 5.9069 1.59168 5.82677C1.68712 5.74664 1.80312 5.69487 1.92651 5.67733L5.72651 5.124L7.39984 1.704C7.45443 1.59129 7.53967 1.49623 7.64578 1.42972C7.7519 1.3632 7.8746 1.32793 7.99984 1.32793C8.12508 1.32793 8.24779 1.3632 8.3539 1.42972C8.46002 1.49623 8.54525 1.59129 8.59984 1.704L10.2932 5.11733L14.0932 5.67067C14.2166 5.6882 14.3326 5.73997 14.428 5.82011C14.5235 5.90024 14.5945 6.00552 14.6332 6.124C14.6685 6.23978 14.6717 6.36301 14.6424 6.48046C14.613 6.59791 14.5522 6.70515 14.4665 6.79067L11.7198 9.45733L12.3865 13.2107C12.4103 13.3357 12.3978 13.4648 12.3506 13.583C12.3033 13.7011 12.2233 13.8032 12.1198 13.8773C11.9991 13.9619 11.8538 14.0041 11.7065 13.9973Z" fill="#F79726"/>
</svg>
