<svg width="61" height="61" viewBox="0 0 61 61" fill="none" xmlns="http://www.w3.org/2000/svg">
<g clip-path="url(#clip0_95_770)">
<path d="M44.5624 50.4219C44.5624 53.0107 42.4638 55.1094 39.8749 55.1094H21.125C18.5362 55.1094 16.4375 53.0107 16.4375 50.4219V10.5783C16.4375 7.98948 18.5362 5.89078 21.125 5.89078H39.8749C42.4638 5.89078 44.5624 7.98948 44.5624 10.5783V50.4219Z" stroke="black" stroke-width="3" stroke-miterlimit="10" stroke-linecap="round" stroke-linejoin="round"/>
<path d="M32.8437 48.0781H28.1562" stroke="black" stroke-width="3" stroke-miterlimit="10" stroke-linecap="round" stroke-linejoin="round"/>
<path d="M32.8437 12.9219H28.1562" stroke="black" stroke-width="3" stroke-miterlimit="10" stroke-linecap="round" stroke-linejoin="round"/>
<path d="M56.4002 19.9532C57.9099 22.7678 58.7422 26.5137 58.7422 30.4984C58.7422 34.4831 57.9099 38.2291 56.3984 41.0469" stroke="#B70223" stroke-width="3" stroke-miterlimit="10" stroke-linecap="round" stroke-linejoin="round"/>
<path d="M50.5404 23.4688C51.6726 25.3452 52.2969 27.8425 52.2969 30.499C52.2969 33.1554 51.6726 35.6527 50.5391 37.5312" stroke="#B70223" stroke-width="3" stroke-miterlimit="10" stroke-linecap="round" stroke-linejoin="round"/>
<path d="M4.5998 19.9532C3.09008 22.7678 2.25781 26.5137 2.25781 30.4984C2.25781 34.4831 3.09008 38.2291 4.60156 41.0469" stroke="#B70223" stroke-width="3" stroke-miterlimit="10" stroke-linecap="round" stroke-linejoin="round"/>
<path d="M10.4596 23.4688C9.32738 25.3452 8.70312 27.8425 8.70312 30.499C8.70312 33.1554 9.32738 35.6527 10.4609 37.5312" stroke="#B70223" stroke-width="3" stroke-miterlimit="10" stroke-linecap="round" stroke-linejoin="round"/>
</g>
<defs>
<clipPath id="clip0_95_770">
<rect width="60" height="60" fill="white" transform="translate(0.5 0.5)"/>
</clipPath>
</defs>
</svg>
