<svg width="87" height="89" viewBox="0 0 87 89" fill="none" xmlns="http://www.w3.org/2000/svg">
<path d="M15 17.4423C15 18.4724 14.7374 19.443 14.2121 20.3543C13.7062 21.2457 12.9475 21.9886 11.9358 22.5829C10.9436 23.1573 9.76654 23.4941 8.40467 23.5931V26H6.53696V23.5634C4.59144 23.3851 3.02529 22.7909 1.83852 21.7806C0.651751 20.7505 0.0389105 19.3638 0 17.6206H4.37743C4.49416 19.0469 5.21401 19.9086 6.53696 20.2057V14.5303C5.13619 14.1737 4.00778 13.8171 3.15175 13.4606C2.29572 13.104 1.55642 12.5295 0.933852 11.7371C0.311284 10.9448 0 9.86514 0 8.49829C0 6.77486 0.603113 5.36838 1.80934 4.27886C3.03502 3.18933 4.61089 2.56533 6.53696 2.40686V0H8.40467V2.40686C10.2724 2.56533 11.7607 3.13981 12.8696 4.13029C13.9981 5.12076 14.6304 6.48762 14.7665 8.23086H10.3599C10.3016 7.65638 10.0973 7.16114 9.74708 6.74514C9.41634 6.30933 8.96887 6.00229 8.40467 5.824V11.44C9.86381 11.8164 11.0117 12.1829 11.8482 12.5394C12.7043 12.8762 13.4436 13.4408 14.0661 14.2331C14.6887 15.0057 15 16.0754 15 17.4423ZM4.2607 8.29029C4.2607 8.944 4.45525 9.47886 4.84436 9.89486C5.23346 10.291 5.79767 10.6179 6.53696 10.8754V5.73486C5.83658 5.8339 5.2821 6.10133 4.87354 6.53714C4.46498 6.97295 4.2607 7.55733 4.2607 8.29029ZM8.40467 20.2651C9.14397 20.1265 9.7179 19.8194 10.1265 19.344C10.5545 18.8686 10.7685 18.2941 10.7685 17.6206C10.7685 16.9669 10.5642 16.4419 10.1556 16.0457C9.74708 15.6495 9.16342 15.3227 8.40467 15.0651V20.2651Z" fill="white"/>
<path d="M25 44.2595C25 30.3883 27.3051 19.564 31.9154 11.7865C36.6051 3.92883 44.6333 0 56 0C67.3667 0 75.3551 3.92883 79.9654 11.7865C84.6551 19.564 87 30.3883 87 44.2595C87 58.291 84.6551 69.2757 79.9654 77.2135C75.3551 85.0712 67.3667 89 56 89C44.6333 89 36.6051 85.0712 31.9154 77.2135C27.3051 69.2757 25 58.291 25 44.2595ZM73.6462 44.2595C73.6462 37.7649 73.209 32.2725 72.3346 27.7824C71.5397 23.2923 69.8705 19.6441 67.3269 16.8378C64.7833 13.9514 61.0077 12.5081 56 12.5081C50.9923 12.5081 47.2167 13.9514 44.6731 16.8378C42.1295 19.6441 40.4205 23.2923 39.5462 27.7824C38.7513 32.2725 38.3538 37.7649 38.3538 44.2595C38.3538 50.9946 38.7513 56.6473 39.5462 61.2176C40.341 65.7878 42.0103 69.4761 44.5538 72.2824C47.1769 75.0887 50.9923 76.4919 56 76.4919C61.0077 76.4919 64.7833 75.0887 67.3269 72.2824C69.95 69.4761 71.659 65.7878 72.4538 61.2176C73.2487 56.6473 73.6462 50.9946 73.6462 44.2595Z" fill="white"/>
</svg>
