<svg width="37" height="38" viewBox="0 0 37 38" fill="none" xmlns="http://www.w3.org/2000/svg">
<path d="M16.1842 5.46851C10.2151 5.46851 5.35742 10.437 5.35742 16.5423C5.35742 22.6476 10.2151 27.6161 16.1842 27.6161C17.3986 27.6161 18.5924 27.4056 19.7245 27.0055C19.8686 26.9634 19.9921 26.8792 20.1156 26.774C20.2391 26.6687 20.3214 26.5424 20.3832 26.4161C20.4449 26.2897 20.4861 26.1424 20.5067 25.974C20.5067 25.8266 20.4861 25.6792 20.4449 25.5318C20.4038 25.3845 20.3214 25.2582 20.2185 25.1318C20.1156 25.0266 19.9921 24.9213 19.8686 24.8582C19.7245 24.795 19.601 24.7529 19.4363 24.7529C19.2923 24.7318 19.1482 24.7529 19.0041 24.8161C18.0779 25.1318 17.131 25.3003 16.1842 25.3003C11.4501 25.3003 7.62158 21.3634 7.62158 16.5423C7.62158 11.7001 11.4706 7.78432 16.1842 7.78432C20.9183 7.78432 24.7468 11.7212 24.7468 16.5423C24.7468 17.5107 24.5822 18.4792 24.2734 19.4265C24.1705 19.7213 24.1911 20.0371 24.3351 20.3107C24.4792 20.5844 24.7057 20.795 24.9938 20.9002C25.282 21.0055 25.5907 20.9844 25.8583 20.8371C26.1259 20.7108 26.3317 20.4581 26.4346 20.1634C26.8257 18.9844 27.0316 17.7634 27.0316 16.5423C27.011 10.437 22.1533 5.46851 16.1842 5.46851Z" fill="#121212"/>
<path d="M16.1844 0.5C7.53945 0.5 0.5 7.70007 0.5 16.5423C0.5 25.3844 7.53945 32.5845 16.1844 32.5845C17.8105 32.5845 19.416 32.3319 20.9597 31.8266C21.2273 31.7213 21.4537 31.5108 21.5772 31.2371C21.7007 30.9634 21.7213 30.6687 21.639 30.374C21.5566 30.1003 21.3508 29.8476 21.1038 29.7213C20.8568 29.5739 20.5481 29.5529 20.2599 29.6161C18.9426 30.0582 17.5635 30.2687 16.1844 30.2687C8.77444 30.2687 2.76415 24.1213 2.76415 16.5423C2.76415 8.96323 8.77444 2.81581 16.1844 2.81581C23.5944 2.81581 29.6047 8.98429 29.6047 16.5423C29.6047 17.9738 29.3988 19.3633 28.9666 20.7107C28.8842 21.0055 28.9048 21.3212 29.0283 21.5949C29.1724 21.8686 29.3988 22.0791 29.687 22.1634C29.9752 22.2476 30.2839 22.2265 30.5515 22.1002C30.8191 21.9528 31.0249 21.7212 31.1072 21.4265C31.6012 19.8475 31.8482 18.2054 31.8482 16.5423C31.8688 7.70007 24.8294 0.5 16.1844 0.5Z" fill="#121212"/>
<path d="M16.1845 21.8686C15.4435 21.8686 14.7231 21.5739 14.1879 21.0265C13.6527 20.4791 13.3646 19.7633 13.3646 18.9844C13.3646 18.7317 13.4675 18.5002 13.6321 18.3317C13.7968 18.1633 14.0438 18.058 14.2702 18.058C14.4967 18.058 14.7436 18.1633 14.9083 18.3317C15.073 18.5002 15.1759 18.7528 15.1759 18.9844C15.1759 19.5528 15.6287 20.016 16.1845 20.016C16.7402 20.016 17.193 19.5528 17.193 18.9844V18.6686C17.193 18.4159 17.1107 18.1423 16.9461 17.9528C16.7814 17.7423 16.5755 17.5949 16.308 17.5317L15.6081 17.3422C14.9701 17.1738 14.3937 16.7949 13.9821 16.2686C13.5704 15.7422 13.344 15.0685 13.3646 14.3949V14.0791C13.3646 12.5001 14.6201 11.1948 16.1845 11.1948C17.7282 11.1948 19.0044 12.479 19.0044 14.0791C19.0044 14.3317 18.9015 14.5633 18.7368 14.7317C18.5721 14.9001 18.3251 15.0054 18.0987 15.0054C17.8517 15.0054 17.6253 14.9001 17.4606 14.7317C17.296 14.5633 17.193 14.3106 17.193 14.0791C17.193 13.5106 16.7402 13.0475 16.1845 13.0475C15.6287 13.0475 15.1759 13.5106 15.1759 14.0791V14.3949C15.1759 14.9422 15.5258 15.4054 16.0404 15.5317L16.7402 15.7212C17.3783 15.8896 17.9546 16.2686 18.3663 16.7949C18.7779 17.3212 19.0044 17.9949 18.9838 18.6686V18.9844C18.9838 19.7423 18.6956 20.4791 18.1604 21.0265C17.6459 21.5528 16.946 21.8686 16.1845 21.8686Z" fill="#B70223"/>
<path d="M16.1845 13.0685C15.9375 13.0685 15.7111 12.9632 15.5464 12.7948C15.3817 12.6264 15.2788 12.3738 15.2788 12.1422V10.5422C15.2788 10.2895 15.3817 10.058 15.5464 9.88953C15.7111 9.72111 15.9581 9.61584 16.1845 9.61584C16.4315 9.61584 16.6579 9.72111 16.8226 9.88953C16.9872 10.058 17.0901 10.3106 17.0901 10.5422V12.1422C17.0901 12.3948 16.9872 12.6264 16.8226 12.7948C16.6579 12.9843 16.4315 13.0685 16.1845 13.0685ZM16.1845 23.4686C15.9375 23.4686 15.7111 23.3633 15.5464 23.1949C15.3817 23.0265 15.2788 22.7739 15.2788 22.5423V20.9212C15.2788 20.6686 15.3817 20.437 15.5464 20.2686C15.7111 20.1002 15.9581 19.9949 16.1845 19.9949C16.4315 19.9949 16.6579 20.1002 16.8226 20.2686C16.9872 20.437 17.0901 20.6896 17.0901 20.9212V22.5212C17.0901 22.7739 16.9872 23.0054 16.8226 23.1739C16.6579 23.3633 16.4315 23.4686 16.1845 23.4686Z" fill="#B70223"/>
<path d="M32.6717 37.3215C32.1366 37.3215 31.5808 37.1109 31.1692 36.6899L27.7729 33.2162L25.9822 35.0477C25.8793 35.153 25.7352 35.2372 25.5705 35.2793C25.4264 35.3214 25.2618 35.3214 25.0971 35.2793C24.953 35.2372 24.8089 35.153 24.6854 35.0477C24.5825 34.9425 24.5002 34.7951 24.459 34.6267L21.4127 23.0266C21.3715 22.8792 21.3715 22.7108 21.4127 22.5424C21.4539 22.3739 21.5362 22.2476 21.6391 22.1213C21.742 22.0161 21.8861 21.9318 22.0508 21.8897C22.2155 21.8476 22.3595 21.8476 22.5242 21.8897L33.8656 25.0056C34.0096 25.0477 34.1537 25.1319 34.2772 25.2371C34.3801 25.3424 34.4625 25.4898 34.5036 25.6582C34.5448 25.8056 34.5448 25.974 34.5036 26.1424C34.4625 26.2898 34.3801 26.4371 34.2772 26.5635L32.4865 28.3951L35.8827 31.8477C36.7061 32.6898 36.7061 34.0793 35.8827 34.9214L34.1743 36.6688C33.7626 37.1109 33.2069 37.3215 32.6717 37.3215ZM27.7935 30.9846C28.0405 30.9846 28.2669 31.0898 28.4316 31.2582L32.4659 35.3846C32.5276 35.4478 32.61 35.4688 32.6717 35.4688C32.7541 35.4688 32.8364 35.4267 32.8776 35.3846L34.586 33.6372C34.6477 33.574 34.6683 33.4898 34.6683 33.4267C34.6683 33.3425 34.6271 33.2583 34.586 33.2162L30.5517 29.0898C30.4693 29.0056 30.4076 28.9003 30.3458 28.7951C30.3047 28.6898 30.2841 28.5635 30.2841 28.4372C30.2841 28.3108 30.3047 28.1845 30.3458 28.0793C30.387 27.974 30.4488 27.8687 30.5517 27.7845L31.869 26.4371L23.5739 24.1634L25.7969 32.6477L27.1143 31.3003C27.3201 31.0688 27.5465 30.9846 27.7935 30.9846Z" fill="#B70223"/>
</svg>
