<svg width="41" height="40" viewBox="0 0 41 40" fill="none" xmlns="http://www.w3.org/2000/svg">
<path d="M17.8597 25.2906L22.0764 12.37C22.2373 11.8949 21.9871 11.3832 21.5047 11.2187C21.0401 11.0542 20.5398 11.3101 20.379 11.8035L16.1623 24.7241C16.0015 25.1993 16.2516 25.711 16.734 25.8754C16.8234 25.912 16.9306 25.9303 17.0199 25.9303C17.3773 25.912 17.7346 25.6744 17.8597 25.2906ZM24.167 21.2884C25.65 21.2884 26.8471 20.0639 26.8471 18.5471C26.8471 17.0302 25.65 15.8058 24.167 15.8058C22.6839 15.8058 21.4868 17.0302 21.4868 18.5471C21.4868 20.0639 22.6839 21.2884 24.167 21.2884ZM24.167 17.6333C24.6672 17.6333 25.0603 18.0354 25.0603 18.5471C25.0603 19.0588 24.6672 19.4608 24.167 19.4608C23.6667 19.4608 23.2736 19.0588 23.2736 18.5471C23.2736 18.0354 23.6667 17.6333 24.167 17.6333ZM14.0717 15.8058C12.5887 15.8058 11.3916 17.0302 11.3916 18.5471C11.3916 20.0639 12.5887 21.2884 14.0717 21.2884C15.5548 21.2884 16.7519 20.0639 16.7519 18.5471C16.7519 17.0302 15.5369 15.8058 14.0717 15.8058ZM14.0717 19.4608C13.5715 19.4608 13.1784 19.0588 13.1784 18.5471C13.1784 18.0354 13.5715 17.6333 14.0717 17.6333C14.572 17.6333 14.9651 18.0354 14.9651 18.5471C14.9651 19.0405 14.5542 19.4608 14.0717 19.4608Z" fill="#B70223"/>
<path d="M36.2278 15.4586L33.1725 11.2918L33.2797 10.5243C33.2975 10.3415 33.2975 10.1588 33.2261 9.99429C33.1725 9.82981 33.0831 9.66533 32.9581 9.53741L31.2249 7.76471L32.9581 5.992C33.1725 5.7727 33.2976 5.4803 33.2976 5.16962C33.2976 4.85894 33.1725 4.56653 32.9581 4.34723C32.7437 4.12793 32.4578 4 32.154 4C31.8503 4 31.5644 4.12793 31.35 4.34723L29.6168 6.11993L27.8837 4.34723C27.7586 4.2193 27.6157 4.12793 27.437 4.0731C27.2762 4.01828 27.0975 4 26.9188 4.01828L18.0743 5.31582C17.8242 5.35237 17.6098 5.46202 17.4311 5.64477L6.53186 16.8658C5.15605 18.273 5.15605 20.5391 6.53186 21.9463L15.7873 31.4129C15.9481 31.5774 16.1446 31.7419 16.3412 31.8698V32.1074C16.3412 34.0811 17.9135 35.7076 19.8611 35.7076H32.9581C34.8878 35.7076 36.478 34.0994 36.478 32.1074V16.1531C36.4601 15.8972 36.3708 15.6596 36.2278 15.4586ZM27.1153 8.7333L26.6508 8.25814C26.2041 7.80126 25.4894 7.80126 25.0606 8.25814C24.8462 8.47744 24.7211 8.76985 24.7211 9.08053C24.7211 9.3912 24.8462 9.68361 25.0606 9.90291L27.5799 12.4797C28.0087 12.9183 28.7592 12.9183 29.188 12.4797C29.6347 12.0228 29.6347 11.2918 29.188 10.835L28.7234 10.3598L29.6526 9.40948L30.9748 10.7619L29.8491 18.8395L19.1643 29.7681C18.6997 30.2433 17.8599 30.2433 17.3954 29.7681L8.13994 20.3015C7.90766 20.064 7.78259 19.735 7.78259 19.4061C7.78259 19.0771 7.90766 18.7481 8.13994 18.5106L18.8248 7.58195L26.7223 6.43061L28.0445 7.78298L27.1153 8.7333ZM20.7545 31.4129L31.7073 20.2102C31.886 20.0274 31.9932 19.8081 32.0289 19.5523L32.7258 14.5266L34.1909 16.5368V32.1074C34.1909 32.8201 33.637 33.3866 32.9402 33.3866H19.8432C19.2715 33.3866 18.789 32.9846 18.6461 32.4546C19.4501 32.3632 20.1827 31.9977 20.7545 31.4129Z" fill="#121212"/>
</svg>
