<svg width="41" height="40" viewBox="0 0 41 40" fill="none" xmlns="http://www.w3.org/2000/svg">
<path fill-rule="evenodd" clip-rule="evenodd" d="M11.843 6.43061C11.4678 6.43061 11.1104 6.54026 10.8067 6.74129C10.4851 6.94232 10.2349 7.21645 10.0741 7.56368L8.6447 10.506H33.3735L31.9441 7.56368C31.7833 7.23472 31.5331 6.94232 31.2115 6.74129C30.8899 6.54026 30.5325 6.43061 30.1752 6.43061H11.843ZM34.0882 12.9366H7.89427V31.1936C7.89427 31.7236 8.10868 32.2536 8.4839 32.6374C8.85912 33.0211 9.35941 33.2404 9.89544 33.2404H32.1228C32.6409 33.2404 33.1591 33.0211 33.5343 32.6374C33.9095 32.2536 34.1239 31.7419 34.1239 31.1936V12.9366H34.0882ZM7.93 6.46716C8.28735 5.71788 8.84125 5.09652 9.53808 4.65791C10.2349 4.2193 11.0211 4 11.8251 4H30.1216C30.9256 4 31.7297 4.23758 32.4086 4.65791C33.1055 5.09652 33.6594 5.71788 34.0167 6.46716L36.3395 11.1639C36.4289 11.3284 36.4646 11.5111 36.4646 11.7122V31.1936C36.4646 32.3815 36 33.5146 35.1781 34.3552C34.3562 35.1959 33.2484 35.671 32.087 35.671H9.87757C8.71617 35.671 7.60838 35.1959 6.78647 34.3552C5.96456 33.5146 5.5 32.3815 5.5 31.1936V11.7122C5.5 11.5294 5.53574 11.3284 5.62508 11.1639L7.93 6.46716Z" fill="#121212"/>
<path fill-rule="evenodd" clip-rule="evenodd" d="M15.5 29.2244C15.5 28.8955 15.6251 28.5848 15.8574 28.3655C16.0718 28.1462 16.3755 28 16.6971 28H24.6304C24.952 28 25.2557 28.1279 25.4701 28.3655C25.6845 28.5848 25.8275 28.8955 25.8275 29.2244C25.8275 29.5534 25.7024 29.8641 25.4701 30.0834C25.2557 30.3027 24.952 30.4489 24.6304 30.4489H16.6971C16.3755 30.4489 16.0718 30.321 15.8574 30.0834C15.6251 29.8458 15.5 29.5351 15.5 29.2244Z" fill="#B70223"/>
</svg>
