<svg width="41" height="40" viewBox="0 0 41 40" fill="none" xmlns="http://www.w3.org/2000/svg">
<path d="M20.9242 4C14.5812 4 9.41748 9.29983 9.41748 15.7875C9.41748 21.4346 12.1155 24.4683 14.9922 27.703C16.7432 29.6585 18.53 31.687 19.9058 34.4832C20.1023 34.8852 20.4954 35.1228 20.9421 35.1228C21.3888 35.1228 21.764 34.8852 21.9784 34.4832C23.3364 31.687 25.141 29.6585 26.892 27.703C29.7687 24.4866 32.4667 21.4346 32.4667 15.7875C32.431 9.29983 27.2672 4 20.9242 4ZM25.1589 26.1131C23.8903 27.5385 22.4608 29.1468 21.1922 31.1022L20.9242 31.5226L20.6562 31.1022C19.4055 29.1468 17.9582 27.5203 16.7075 26.1131C13.9201 22.988 11.7224 20.5208 11.7224 15.7693C11.7224 10.5791 15.8498 6.33923 20.9242 6.33923C23.4614 6.35751 25.7664 7.3992 27.4459 9.11708C29.1076 10.8167 30.1439 13.1742 30.1439 15.7693C30.1439 20.5208 27.9462 22.988 25.1589 26.1131Z" fill="#121212"/>
<path d="M37.3806 21.4711C37.2198 21.9463 36.791 22.257 36.3086 22.257C35.6653 22.257 35.165 21.727 35.165 21.0874C35.165 20.9594 35.2008 20.8315 35.2365 20.7036C35.7904 19.0588 36.0763 17.3409 36.0763 15.6048C36.0763 13.9965 35.844 12.3883 35.3437 10.8532C35.1472 10.2318 35.4688 9.57393 36.0763 9.37291C36.1835 9.31808 36.3086 9.2998 36.4336 9.2998C36.9161 9.2998 37.3628 9.61048 37.5236 10.1222C38.6671 13.7772 38.6314 17.8161 37.3806 21.4711Z" fill="#B70223"/>
<path d="M20.9242 10.8167C18.244 10.8167 16.082 13.0462 16.082 15.7692C16.082 18.4923 18.2619 20.7218 20.9242 20.7218C23.5864 20.7036 25.7663 18.4923 25.7663 15.7692C25.7842 13.0462 23.6043 10.8167 20.9242 10.8167ZM20.9242 18.3826C19.5126 18.3826 18.3691 17.213 18.3691 15.7692C18.3691 14.3255 19.5126 13.1559 20.9242 13.1559C21.621 13.1559 22.2642 13.4483 22.7288 13.9234C23.1933 14.3986 23.4792 15.0382 23.4792 15.7692C23.4792 17.213 22.3357 18.3826 20.9242 18.3826Z" fill="#B70223"/>
<path d="M5.93324 22.1839C5.3436 22.4032 4.6825 22.0559 4.46809 21.4711C3.21736 17.8161 3.18162 13.7772 4.34302 10.1039C4.43235 9.79324 4.64677 9.55566 4.91478 9.42773C5.07559 9.33636 5.25427 9.2998 5.43294 9.2998C5.55802 9.2998 5.66522 9.31808 5.79029 9.35463C6.09404 9.44601 6.32632 9.66531 6.46926 9.93944C6.59434 10.2136 6.63007 10.5425 6.52287 10.8532C6.04044 12.3883 5.79029 13.9783 5.79029 15.6048C5.79029 17.3409 6.07618 19.0588 6.63007 20.7036C6.84448 21.2884 6.52287 21.9646 5.93324 22.1839Z" fill="#B70223"/>
</svg>
