<svg width="41" height="40" viewBox="0 0 41 40" fill="none" xmlns="http://www.w3.org/2000/svg">
<path d="M35.35 16.8C34.25 14.2 31.65 8.5 30.75 7.7C29.45 6.6 25.85 6 21.15 6H19.65C14.95 6 11.35 6.6 10.05 7.7C9.05 8.5 6.35 14.6 5.45 16.8C3.25 18 2.25 20.1 2.25 23.4C2.25 26.7 3.05 29.6 3.05 29.6C3.05 29.8 3.25 30 3.35 30.1C3.45 30.2 3.55 30.2 3.75 30.3V32.4C3.75 33.7 4.85 34.8 6.15 34.8H10.65C11.95 34.8 13.05 33.7 13.05 32.4V31.6L13.25 31.7C13.35 31.8 13.55 31.8 13.65 31.8H27.15C27.25 31.8 27.45 31.8 27.55 31.7L27.75 31.6V32.4C27.75 33.7 28.85 34.8 30.15 34.8H34.65C35.95 34.8 37.05 33.7 37.05 32.4V30.3C37.35 30.2 37.65 30 37.75 29.7C37.75 29.7 38.55 26.8 38.55 23.5C38.55 20.1 37.55 18 35.35 16.8ZM11.25 9.1C11.85 8.6 14.25 7.8 19.65 7.8H21.15C26.65 7.8 29.05 8.6 29.55 9.1C29.95 9.5 31.35 12.4 32.95 15.9C30.45 15.3 26.35 15 20.45 15C14.55 15 10.45 15.3 7.85 15.9C9.35 12.3 10.85 9.4 11.25 9.1ZM4.05 23.4C4.05 23.2 4.05 23 4.05 22.8H6.35C6.95 22.8 7.45 23 7.85 23.4L9.95 25.5H4.15C4.05 24.8 4.05 24.1 4.05 23.4ZM11.25 32.4C11.25 32.7 10.95 33 10.65 33H6.15C5.85 33 5.55 32.7 5.55 32.4V30.3H10.45L11.25 30.7V32.4ZM35.25 32.4C35.25 32.7 34.95 33 34.65 33H30.15C29.85 33 29.55 32.7 29.55 32.4V30.7L30.35 30.3H35.25V32.4ZM36.15 28.5H30.15C30.05 28.5 29.85 28.5 29.75 28.6L26.95 30H13.85L11.05 28.6C10.95 28.5 10.75 28.5 10.65 28.5H4.65C4.55 28.2 4.55 27.8 4.45 27.3H12.25C12.65 27.3 12.95 27.1 13.05 26.7C13.15 26.4 13.15 26 12.85 25.7L9.25 22.1C8.45 21.4 7.45 21 6.45 21H4.35C4.65 19.7 5.45 18.8 6.55 18.2C8.35 17.3 12.95 16.8 20.35 16.8C27.75 16.8 32.45 17.3 34.15 18.2C35.35 18.8 36.05 19.7 36.35 21H34.25C33.25 21 32.25 21.4 31.45 22.2L27.85 25.8C27.55 26.1 27.55 26.4 27.65 26.8C27.75 27.1 28.15 27.4 28.45 27.4H36.25C36.35 27.8 36.25 28.2 36.15 28.5ZM36.65 25.5H30.85L32.95 23.4C33.35 23 33.85 22.8 34.45 22.8H36.75C36.75 23 36.75 23.2 36.75 23.4C36.75 24.1 36.75 24.8 36.65 25.5Z" fill="black"/>
<path d="M29.45 21.5C29.35 21.3 29.25 21.2 29.15 21.1C28.95 21 28.85 21 28.65 21H12.15C11.95 21 11.85 21 11.65 21.2C11.55 21.3 11.35 21.4 11.35 21.6C11.25 21.7 11.25 21.8 11.25 22C11.25 22.2 11.35 22.3 11.45 22.5L15.25 27C15.35 27.1 15.45 27.2 15.55 27.2C15.65 27.2 15.75 27.3 15.95 27.3H24.95C25.25 27.3 25.45 27.2 25.65 27L29.45 22.5C29.55 22.4 29.65 22.2 29.65 22C29.55 21.8 29.55 21.7 29.45 21.5ZM24.45 25.5H16.35L14.15 22.8H26.75L24.45 25.5Z" fill="#B70223"/>
</svg>
