<svg width="41" height="40" viewBox="0 0 41 40" fill="none" xmlns="http://www.w3.org/2000/svg">
<path d="M35.15 7.9H29.95C28.65 4.5 25.35 2 21.45 2H17.85C13.95 2 10.65 4.4 9.35001 7.9H5.35001C3.65001 7.9 2.25 9.3 2.25 11V21.9C2.25 23.6 3.65001 25 5.35001 25H6.65V37C6.65 37.5 7.05 38 7.65 38H9.65C9.95 38 10.35 37.8 10.45 37.5L12.65 33.9C12.75 33.7 12.75 33.6 12.75 33.4V25H14.05C15.75 25 17.15 23.6 17.15 21.9V11C17.15 9.3 15.75 7.9 14.05 7.9H11.35C12.55 5.6 14.85 4 17.65 4H21.25C23.95 4 26.35 5.6 27.55 7.9H23.65C21.95 7.9 20.55 9.3 20.55 11V29.4C20.55 31.1 21.95 32.5 23.65 32.5H34.95C36.65 32.5 38.05 31.1 38.05 29.4V11C38.25 9.3 36.85 7.9 35.15 7.9ZM10.95 33.1L9.15 36H8.65V25H10.85V33.1H10.95ZM14.25 9.9C14.85 9.9 15.35 10.4 15.35 11V21.9C15.35 22.5 14.85 23 14.25 23H5.35001C4.75001 23 4.25 22.5 4.25 21.9V11C4.25 10.4 4.75001 9.9 5.35001 9.9H8.85001C8.75001 10.3 8.75 10.7 8.75 11.1V11.3C8.75 11.8 9.15 12.3 9.75 12.3C10.25 12.3 10.75 11.8 10.75 11.3V11.1C10.75 10.7 10.75 10.3 10.85 9.9H14.25ZM36.25 29.4C36.25 30 35.75 30.5 35.15 30.5H23.85C23.25 30.5 22.75 30 22.75 29.4V11C22.75 10.4 23.25 9.9 23.85 9.9H28.35C28.45 10.3 28.45 10.7 28.45 11.1V11.3C28.45 11.8 28.85 12.3 29.45 12.3C29.95 12.3 30.45 11.8 30.45 11.3V11.1C30.45 10.7 30.45 10.3 30.35 9.9H35.05C35.65 9.9 36.15 10.4 36.15 11V29.4H36.25Z" fill="black"/>
<path d="M31.9502 14.6001H27.0502C25.9502 14.6001 24.9502 15.5001 24.9502 16.7001V26.3001C24.9502 27.4001 25.8502 28.4001 27.0502 28.4001H31.9502C33.0502 28.4001 34.0502 27.5001 34.0502 26.3001V16.7001C34.0502 15.5001 33.0502 14.6001 31.9502 14.6001ZM31.9502 26.3001L26.9502 26.2001V22.4001H31.9502V26.3001ZM31.9502 20.4001H26.9502V16.6001C26.9502 16.6001 26.9502 16.5001 27.0502 16.5001L32.0502 16.6001L31.9502 20.4001Z" fill="#B70223"/>
<path d="M13.1502 15.6001C13.1502 16.1001 12.7502 16.6001 12.1502 16.6001H7.4502C6.9502 16.6001 6.4502 16.1001 6.4502 15.6001C6.4502 15.1001 6.9502 14.6001 7.4502 14.6001H12.1502C12.6502 14.6001 13.1502 15.0001 13.1502 15.6001Z" fill="#B70223"/>
<path d="M13.1502 19.8001C13.1502 20.3001 12.7502 20.8001 12.1502 20.8001H7.4502C6.9502 20.8001 6.4502 20.3001 6.4502 19.8001C6.4502 19.3001 6.9502 18.8001 7.4502 18.8001H12.1502C12.6502 18.8001 13.1502 19.3001 13.1502 19.8001Z" fill="#B70223"/>
</svg>
