<svg width="39" height="37" viewBox="0 0 39 37" fill="none" xmlns="http://www.w3.org/2000/svg">
<path d="M24.45 16.0248C24.45 15.7248 24.35 15.4248 24.15 15.2248C23.95 15.0248 23.65 14.9248 23.35 14.9248H10.95C10.65 14.9248 10.35 15.0248 10.15 15.2248C9.95 15.4248 9.75 15.7248 9.75 16.0248C9.75 16.3248 9.85 16.6248 10.05 16.8248C10.25 17.0248 10.55 17.1248 10.85 17.1248H23.25C23.35 17.1248 23.55 17.1248 23.65 17.0248C23.75 16.9248 23.95 16.9248 24.05 16.8248C24.15 16.7248 24.25 16.6248 24.25 16.4248C24.35 16.3248 24.45 16.1248 24.45 16.0248ZM10.95 20.5248C10.65 20.5248 10.35 20.6248 10.15 20.8248C9.95 21.1248 9.75 21.4248 9.75 21.7248C9.75 22.0248 9.85 22.3248 10.05 22.5248C10.25 22.7248 10.55 22.8248 10.85 22.8248H17.45C17.75 22.8248 18.05 22.7248 18.25 22.5248C18.45 22.3248 18.55 22.0248 18.55 21.7248C18.55 21.4248 18.45 21.1248 18.25 20.9248C18.05 20.7248 17.75 20.6248 17.45 20.6248H10.95V20.5248Z" fill="black"/>
<path d="M31.85 16.0249C31.55 16.0249 31.25 16.1249 31.05 16.3249C30.85 16.5249 30.75 16.8249 30.75 17.1249V26.2249C30.75 27.0249 30.45 27.8249 29.85 28.4249C29.25 29.0249 28.45 29.3249 27.65 29.3249H20.15C19.95 29.3249 19.65 29.4249 19.45 29.5249L12.95 34.4249C12.85 34.4249 12.85 34.5249 12.75 34.5249C12.65 34.5249 12.65 34.5249 12.55 34.5249C12.45 34.5249 12.45 34.4249 12.35 34.4249C12.35 34.3249 12.25 34.3249 12.25 34.2249L12.35 30.6249C12.35 30.4249 12.35 30.3249 12.25 30.2249C12.15 30.1249 12.15 29.9249 12.05 29.8249C11.95 29.7249 11.85 29.6249 11.65 29.5249C11.55 29.4249 11.35 29.4249 11.25 29.4249H6.05C5.25 29.4249 4.45 29.1249 3.85 28.5249C3.25 27.9249 2.95 27.1249 2.95 26.3249V11.4249C2.95 10.6249 3.25 9.8249 3.85 9.2249C4.45 8.6249 5.25 8.3249 6.05 8.3249H19.95C20.25 8.3249 20.55 8.2249 20.75 8.0249C20.95 7.8249 21.05 7.5249 21.05 7.2249C21.05 6.9249 20.95 6.6249 20.75 6.4249C20.55 6.2249 20.25 6.0249 19.95 6.0249H6.05C4.65 6.0249 3.35 6.6249 2.35 7.6249C1.35 8.6249 0.75 10.0249 0.75 11.4249V26.3249C0.75 27.7249 1.35 29.0249 2.35 30.0249C3.35 31.0249 4.75 31.6249 6.15 31.6249H10.25L10.15 34.1249C10.15 34.6249 10.25 35.1249 10.55 35.5249C10.85 35.9249 11.15 36.3249 11.65 36.5249C12.05 36.7249 12.45 36.8249 12.85 36.8249C13.45 36.8249 13.95 36.6249 14.45 36.3249L20.65 31.6249H27.75C29.15 31.6249 30.55 31.0249 31.55 30.0249C32.55 29.0249 33.15 27.6249 33.15 26.2249V17.1249C33.15 17.0249 33.15 16.8249 33.05 16.7249C32.95 16.6249 32.95 16.4249 32.85 16.3249C32.75 16.2249 32.65 16.1249 32.45 16.1249C32.15 16.1249 31.95 16.0249 31.85 16.0249Z" fill="black"/>
<path d="M37.9503 5.325C37.8503 5.025 37.6503 4.725 37.4503 4.525C37.2503 4.325 36.9503 4.125 36.6503 4.025L33.7503 3.325L32.1503 0.825C31.4503 -0.275 29.6503 -0.275 28.9503 0.825L27.3503 3.325L24.4503 4.025C23.8503 4.225 23.3503 4.625 23.1503 5.225C22.9503 5.825 23.0503 6.525 23.5503 7.025L25.4503 9.325L25.2503 12.325C25.2503 12.625 25.2503 12.925 25.4503 13.225C25.5503 13.525 25.7503 13.725 26.0503 13.925C26.3503 14.125 26.6503 14.225 26.9503 14.225C27.2503 14.225 27.5503 14.225 27.8503 14.125L30.5503 13.025L33.2503 14.125C33.8503 14.325 34.5503 14.325 35.0503 13.925C35.5503 13.525 35.8503 12.925 35.8503 12.225L35.6503 9.225L37.5503 6.925C37.9503 6.625 38.1503 5.925 37.9503 5.325ZM33.6503 8.325C33.4503 8.525 33.3503 8.825 33.3503 9.125L33.5503 11.925L30.9503 10.825C30.6503 10.725 30.3503 10.725 30.1503 10.825L27.5503 11.925L27.7503 9.125C27.7503 8.825 27.6503 8.525 27.4503 8.325L25.6503 6.125L28.4503 5.425C28.7503 5.325 28.9503 5.225 29.1503 4.925L30.6503 2.525L32.1503 4.925C32.3503 5.125 32.5503 5.325 32.8503 5.425L35.6503 6.125L33.6503 8.325Z" fill="#B70223"/>
</svg>
