<svg width="41" height="40" viewBox="0 0 41 40" fill="none" xmlns="http://www.w3.org/2000/svg">
<path d="M34.85 26.8998C35.85 25.9998 36.45 24.7998 36.45 23.4998C36.45 20.9998 34.45 18.9998 31.95 18.9998C29.45 18.9998 27.45 20.9998 27.45 23.4998C27.45 24.7998 28.05 26.0998 29.05 26.8998C28.35 27.1998 27.65 27.6998 27.05 28.2998C26.35 26.9998 25.15 25.8998 23.75 25.1998C24.75 24.2998 25.35 23.0998 25.35 21.7998C25.35 19.2998 23.35 17.2998 20.85 17.2998C18.35 17.2998 16.35 19.2998 16.35 21.7998C16.35 23.0998 16.95 24.3998 17.95 25.1998C16.55 25.7998 15.45 26.8998 14.65 28.2998C14.05 27.6998 13.35 27.2998 12.65 26.8998C13.65 25.9998 14.25 24.7998 14.25 23.4998C14.25 20.9998 12.25 18.9998 9.75 18.9998C7.25 18.9998 5.25 20.9998 5.25 23.4998C5.25 24.7998 5.84999 26.0998 6.84999 26.8998C4.34999 27.9998 2.75 30.4998 2.75 33.2998V37.3998C2.75 37.8998 3.14999 38.2998 3.64999 38.2998H38.25C38.75 38.2998 39.15 37.8998 39.15 37.3998V33.2998C39.05 30.5998 37.35 28.0998 34.85 26.8998ZM29.15 23.4998C29.15 21.9998 30.45 20.6998 31.95 20.6998C33.45 20.6998 34.75 21.9998 34.75 23.4998C34.75 24.9998 33.45 26.2998 31.95 26.2998C30.45 26.2998 29.15 24.9998 29.15 23.4998ZM27.75 30.0998C28.75 28.7998 30.35 27.9998 31.95 27.9998C34.85 27.9998 37.25 30.3998 37.25 33.2998V36.4998H27.85V31.5998C27.85 31.0998 27.85 30.5998 27.75 30.0998ZM18.05 21.7998C18.05 20.2998 19.35 18.9998 20.85 18.9998C22.35 18.9998 23.65 20.2998 23.65 21.7998C23.65 23.2998 22.35 24.5998 20.85 24.5998C19.35 24.5998 18.05 23.2998 18.05 21.7998ZM23.35 36.5998H15.45V31.6998C15.45 28.7998 17.85 26.3998 20.75 26.3998C23.65 26.3998 26.05 28.7998 26.05 31.6998V36.5998H24.95H23.35ZM13.95 30.0998C13.85 30.5998 13.75 31.0998 13.75 31.5998V36.4998H4.34999V33.2998C4.34999 30.3998 6.74999 27.9998 9.64999 27.9998C11.45 27.9998 12.95 28.7998 13.95 30.0998ZM6.95 23.4998C6.95 21.9998 8.25 20.6998 9.75 20.6998C11.25 20.6998 12.55 21.9998 12.55 23.4998C12.55 24.9998 11.25 26.2998 9.75 26.2998C8.25 26.2998 6.95 24.9998 6.95 23.4998Z" fill="black"/>
<path d="M21.7499 2.8V4.3C21.7499 4.8 21.3499 5.2 20.9499 5.2C20.4499 5.2 20.0499 4.8 20.0499 4.3V2.8C20.0499 2.3 20.4499 2 20.9499 2C21.3499 2 21.7499 2.3 21.7499 2.8Z" fill="#B70223"/>
<path d="M27.9499 5.4L25.5499 7.8C25.4499 7.9 25.3499 7.9 25.2499 8C25.1499 8 25.0499 8.1 24.9499 8.1C24.8499 8.1 24.7499 8.1 24.6499 8C24.5499 8 24.4499 7.9 24.3499 7.8C24.0499 7.5 24.0499 6.9 24.3499 6.6L26.7499 4.2C27.0499 3.9 27.6499 3.9 27.9499 4.2C28.2499 4.5 28.2499 5 27.9499 5.4Z" fill="#B70223"/>
<path d="M17.3499 7.8C17.2499 7.9 17.1499 7.9 17.0499 8C16.9499 8 16.8499 8.1 16.7499 8.1C16.6499 8.1 16.5499 8.1 16.4499 8C16.3499 8 16.2499 7.9 16.1499 7.8L13.7499 5.4C13.4499 5.1 13.4499 4.5 13.7499 4.2C14.0499 3.9 14.6499 3.9 14.9499 4.2L17.3499 6.6C17.7499 6.9 17.7499 7.5 17.3499 7.8Z" fill="#B70223"/>
<path d="M26.4499 10C26.3499 9.6 25.9499 9.3 25.4499 9.2L22.9499 8.8L21.8499 6.6C21.6499 6.2 21.2499 5.9 20.7499 5.9C20.2499 5.9 19.8499 6.2 19.6499 6.6L18.6499 8.8L16.1499 9.2C15.6499 9.3 15.3499 9.6 15.1499 10C15.0499 10.4 15.1499 10.9 15.4499 11.2L17.2499 13L16.8499 15.5C16.7499 16 16.9499 16.4 17.3499 16.7C17.7499 17 18.2499 17 18.5499 16.8L20.7499 15.6L22.9499 16.8C23.1499 16.9 23.3499 16.9 23.4499 16.9C23.6499 16.9 23.9499 16.8 24.1499 16.7C24.5499 16.4 24.6499 16 24.6499 15.5L24.2499 13L26.0499 11.2C26.4499 10.9 26.5499 10.4 26.4499 10ZM22.9499 11.9C22.8499 12 22.7499 12.2 22.6499 12.4C22.5499 12.6 22.5499 12.8 22.6499 13L22.9499 14.7L21.4499 13.9C21.1499 13.7 20.6499 13.7 20.3499 13.9L18.8499 14.7L19.1499 13C19.1499 12.8 19.1499 12.6 19.1499 12.4C19.1499 12.2 18.9499 12 18.8499 11.9L17.6499 10.7L19.3499 10.5C19.5499 10.5 19.7499 10.4 19.8499 10.3C19.9499 10.2 20.1499 10 20.2499 9.9L21.0499 8.4L21.8499 10.1C21.9499 10.2 22.0499 10.3 22.1499 10.4C22.2499 10.5 22.3499 10.5 22.5499 10.6L24.4499 10.9L22.9499 11.9Z" fill="#B70223"/>
</svg>
